<!DOCTYPE svg PUBLIC "-//W3C//DTD SVG 20010904//EN" "http://www.w3.org/TR/2001/REC-SVG-20010904/DTD/svg10.dtd">
<svg version="1.0" xmlns="http://www.w3.org/2000/svg" width="260px" height="260px" viewBox="0 0 2600 2600" preserveAspectRatio="xMidYMid meet">
<g id="layer101" fill="#090604" stroke="none">
 <path d="M1140 2575 c-41 -13 -95 -27 -120 -31 -25 -4 -54 -11 -65 -17 -11 -6 -51 -16 -89 -23 -86 -17 -146 -45 -207 -100 -26 -23 -89 -64 -139 -89 -96 -50 -138 -91 -180 -175 -54 -108 -103 -180 -126 -186 -36 -9 -90 -75 -98 -120 -4 -21 -18 -67 -32 -101 -40 -103 -55 -191 -43 -264 7 -46 7 -89 -2 -154 -29 -215 -14 -338 53 -445 33 -53 68 -126 92 -190 9 -25 41 -76 71 -115 30 -38 70 -93 90 -122 19 -29 54 -68 77 -87 24 -19 93 -75 153 -125 80 -65 131 -99 185 -121 127 -53 134 -55 194 -40 70 17 137 9 251 -30 180 -61 261 -50 480 65 66 35 146 71 178 80 72 21 138 65 274 185 279 246 291 266 353 580 12 58 35 152 52 210 25 83 31 123 31 190 -1 77 -7 103 -68 285 -79 235 -80 238 -157 333 -32 41 -79 109 -104 152 -55 96 -112 150 -200 190 -38 17 -106 57 -154 89 -47 32 -116 73 -155 92 -64 31 -79 34 -167 35 -82 2 -109 7 -179 34 -112 43 -157 46 -249 15z"/>
 </g>
<g id="layer102" fill="#5d3e20" stroke="none">
 <path d="M1152 2493 l-43 -15 26 -24 c69 -64 -18 -151 -132 -129 -48 9 -94 54 -86 85 6 21 4 22 -37 15 -65 -11 -99 -28 -173 -88 -38 -29 -98 -68 -134 -86 -87 -44 -135 -89 -167 -158 -14 -32 -46 -88 -70 -124 l-44 -67 23 -38 c66 -110 -30 -240 -117 -159 l-28 25 -15 -37 c-28 -66 -34 -114 -40 -308 -4 -104 -8 -221 -9 -260 -4 -86 26 -177 91 -278 l44 -67 26 20 c38 29 94 27 127 -6 52 -53 23 -146 -49 -160 -19 -3 -35 -8 -35 -11 0 -3 27 -37 60 -77 33 -40 60 -78 60 -83 0 -6 15 -23 33 -37 62 -51 192 -158 215 -177 36 -30 85 -59 102 -59 11 0 15 12 15 44 0 83 86 138 161 103 46 -23 68 -68 60 -127 l-6 -48 56 -7 c91 -11 107 -15 155 -35 25 -10 58 -21 75 -24 16 -3 41 -8 56 -11 56 -13 142 14 303 94 88 44 173 83 189 86 44 9 107 49 178 112 35 31 97 86 138 122 41 36 91 83 111 104 48 49 97 152 115 241 8 39 21 101 29 137 8 37 15 71 15 75 0 5 -22 9 -49 9 -69 0 -101 30 -101 95 0 47 16 72 64 97 26 14 84 -3 107 -30 l17 -22 13 30 c6 17 12 64 11 105 0 64 -8 101 -56 250 -71 218 -80 238 -152 330 l-58 74 -9 -38 c-17 -72 -108 -99 -165 -51 -39 32 -48 72 -28 119 18 43 68 69 115 60 17 -4 31 -3 31 2 0 5 -17 31 -38 58 -30 41 -56 59 -137 101 -55 28 -138 76 -184 107 -114 78 -172 99 -275 97 -67 -1 -95 4 -166 30 -94 34 -150 37 -218 14z m570 -252 c32 -34 38 -47 38 -83 0 -117 -119 -187 -211 -125 -43 29 -59 60 -59 116 0 86 64 146 150 137 36 -3 51 -11 82 -45z m-753 -324 c50 -42 44 -133 -12 -167 -50 -31 -93 -26 -133 14 -47 47 -46 90 2 154 1 2 20 10 40 17 39 13 72 7 103 -18z m335 -202 c52 -39 73 -130 46 -200 -32 -84 -138 -100 -186 -27 -24 37 -30 131 -10 169 33 65 105 92 150 58z m723 -15 c63 -38 84 -129 44 -193 -71 -114 -241 -74 -257 60 -14 110 118 192 213 133z m-1487 -315 c70 -36 98 -142 54 -203 -39 -52 -76 -69 -133 -62 -62 8 -106 45 -122 104 -31 113 96 215 201 161z m1155 -119 c32 -32 40 -69 25 -107 -17 -39 -46 -59 -90 -59 -46 0 -76 21 -90 64 -21 65 23 125 93 126 27 0 45 -7 62 -24z m-524 -367 c59 -18 101 -68 107 -128 6 -62 -9 -101 -54 -141 -45 -39 -93 -47 -149 -25 -51 19 -80 51 -97 106 -22 74 27 162 104 186 44 15 45 15 89 2z m1020 -60 c59 -41 77 -143 37 -207 -21 -35 -85 -72 -123 -72 -11 0 -39 9 -62 20 -101 45 -114 186 -25 252 31 23 46 28 92 26 35 -1 65 -8 81 -19z m-515 -394 c14 -9 35 -37 46 -61 36 -84 0 -165 -87 -194 -93 -31 -185 38 -185 138 0 108 134 178 226 117z"/>
 <path d="M1544 2224 c-39 -41 -45 -87 -17 -134 46 -79 164 -69 199 17 32 76 -24 153 -112 153 -29 0 -44 -7 -70 -36z"/>
 <path d="M859 1905 c-60 -32 -56 -115 7 -141 39 -16 74 -7 98 28 24 34 19 66 -13 99 -32 32 -53 35 -92 14z"/>
 <path d="M1201 1681 c-30 -30 -44 -93 -31 -139 12 -48 41 -75 80 -75 80 0 118 133 59 207 -25 32 -79 36 -108 7z"/>
 <path d="M1923 1693 c-12 -2 -36 -20 -53 -39 -43 -49 -42 -99 3 -149 29 -32 40 -38 75 -38 30 0 50 8 74 28 18 15 33 31 34 34 0 3 4 15 9 25 12 27 -15 95 -45 117 -28 19 -65 28 -97 22z"/>
 <path d="M423 1361 c-62 -38 -80 -99 -48 -161 41 -79 160 -77 201 2 51 100 -60 215 -153 159z"/>
 <path d="M1610 1263 c-56 -21 -68 -87 -24 -122 15 -12 34 -21 44 -21 10 0 29 9 44 21 34 27 35 71 1 104 -24 25 -37 28 -65 18z"/>
 <path d="M1060 858 c-43 -29 -60 -61 -60 -115 0 -35 6 -49 38 -83 34 -35 44 -40 83 -40 56 0 101 27 123 75 54 112 -82 232 -184 163z"/>
 <path d="M2070 833 c-29 -11 -79 -66 -85 -94 -9 -38 10 -90 41 -120 21 -19 36 -24 81 -24 49 0 58 3 83 32 38 43 47 91 24 138 -9 20 -26 43 -38 50 -25 16 -85 26 -106 18z"/>
 <path d="M1512 406 c-33 -31 -37 -39 -36 -82 1 -41 6 -52 37 -81 84 -76 205 -16 194 97 -7 62 -49 100 -112 100 -38 0 -52 -6 -83 -34z"/>
 <path d="M962 2437 c-28 -30 -28 -41 4 -66 58 -46 175 -16 161 41 -13 51 -125 68 -165 25z"/>
 <path d="M2065 2035 c-31 -30 -34 -84 -7 -108 28 -26 97 -22 116 5 36 50 -1 128 -59 128 -14 0 -37 -11 -50 -25z"/>
 <path d="M222 1862 c-7 -5 -16 -23 -21 -40 -21 -72 34 -148 78 -108 27 25 37 113 15 137 -18 20 -50 24 -72 11z"/>
 <path d="M2343 1225 c-32 -14 -43 -32 -43 -71 0 -59 85 -86 128 -41 57 60 -7 145 -85 112z"/>
 <path d="M286 779 c-19 -15 -26 -30 -26 -53 0 -65 70 -89 116 -39 29 31 26 67 -8 96 -27 22 -49 22 -82 -4z"/>
 <path d="M845 295 c-35 -34 -34 -93 0 -125 35 -33 87 -32 120 1 56 57 20 149 -60 149 -25 0 -44 -8 -60 -25z"/>
 </g>
<g id="layer103" fill="#a46f2f" stroke="none">
 <path d="M1162 2492 l-42 -14 25 -30 c32 -38 31 -50 -3 -89 -24 -27 -37 -33 -85 -37 -87 -7 -146 24 -147 77 0 22 -2 23 -47 16 -55 -8 -100 -32 -159 -85 -22 -21 -78 -56 -123 -80 -102 -53 -132 -83 -178 -174 -19 -39 -51 -94 -69 -122 -19 -28 -34 -56 -34 -61 0 -12 35 -45 41 -38 12 12 7 -56 -7 -103 -26 -81 -84 -102 -140 -50 l-21 19 -24 -53 c-21 -48 -24 -68 -25 -198 0 -80 -4 -208 -9 -286 -9 -164 -1 -201 70 -310 25 -37 46 -71 48 -77 1 -5 18 0 37 12 51 31 86 27 126 -13 19 -19 34 -43 34 -54 0 -58 -43 -112 -90 -112 -29 0 -25 -13 20 -65 22 -25 51 -65 65 -89 14 -23 46 -58 72 -77 27 -18 86 -66 133 -105 74 -62 136 -104 155 -104 3 0 5 21 5 46 0 39 5 51 34 80 30 30 40 34 84 34 43 0 55 -5 81 -30 34 -35 47 -83 32 -122 -8 -21 -7 -28 5 -32 9 -3 20 -3 26 0 11 7 40 -1 180 -47 136 -46 226 -37 363 34 l50 26 -49 1 c-64 0 -109 28 -136 86 -67 136 98 267 226 180 21 -14 34 -26 29 -26 -6 0 -4 -4 4 -9 15 -10 26 -88 17 -125 -3 -13 -18 -39 -33 -56 l-27 -32 50 25 c27 14 75 33 106 42 71 20 109 46 244 165 236 208 253 228 288 351 13 45 56 251 56 269 0 3 -18 5 -40 5 -74 0 -124 66 -104 136 20 69 117 98 168 50 l24 -23 11 38 c23 84 7 182 -62 376 -25 69 -43 129 -39 133 4 3 2 9 -3 13 -6 4 -18 23 -28 43 -10 20 -42 64 -70 99 -48 59 -52 61 -58 38 -12 -44 -34 -68 -71 -79 -98 -26 -173 74 -121 162 19 32 70 54 109 46 32 -6 30 3 -9 55 -24 32 -55 54 -125 90 -51 25 -113 63 -137 82 -24 20 -46 36 -49 36 -4 0 -24 11 -45 25 -71 48 -139 67 -227 66 -69 -1 -94 4 -178 34 -103 37 -136 40 -204 17z m565 -246 c18 -19 35 -47 39 -61 19 -78 -44 -168 -127 -182 -38 -6 -113 28 -134 61 -25 38 -31 106 -12 142 50 96 165 116 234 40z m-773 -312 c25 -14 44 -30 41 -34 -3 -5 -1 -11 5 -15 5 -3 10 -24 10 -46 0 -30 -7 -47 -32 -75 -28 -29 -40 -35 -75 -36 -81 -1 -136 67 -113 138 12 35 59 78 95 87 11 2 21 5 21 6 1 0 22 -11 48 -25z m380 -245 c19 -23 33 -45 31 -50 -3 -4 -1 -10 4 -13 13 -9 3 -73 -21 -123 -35 -75 -117 -92 -171 -35 -75 80 -51 219 46 261 50 22 61 17 111 -40z m718 -6 c62 -62 64 -132 7 -197 -57 -66 -138 -70 -205 -12 -34 29 -38 38 -42 92 -3 50 0 64 20 94 32 47 82 71 137 66 34 -3 52 -12 83 -43z m-1515 -290 c20 -9 48 -35 63 -59 23 -37 26 -49 20 -89 -8 -56 -35 -94 -81 -117 -120 -62 -257 71 -195 190 40 78 122 109 193 75z m1136 -104 c36 -19 57 -52 57 -92 0 -52 -52 -107 -100 -107 -46 0 -100 55 -100 103 0 74 81 128 143 96z m-464 -399 c114 -65 105 -226 -16 -289 -46 -24 -140 -7 -178 33 -46 48 -60 128 -31 184 44 84 145 116 225 72z m954 -34 c18 -7 47 -30 66 -51 31 -35 33 -42 29 -91 -13 -152 -175 -209 -271 -94 -100 118 33 296 176 236z"/>
 </g>
<g id="layer104" fill="#d8933e" stroke="none">
 <path d="M1165 2380 c-16 -49 -113 -82 -178 -61 -28 10 -53 9 -124 -5 -113 -21 -135 -30 -209 -92 -34 -28 -94 -67 -134 -86 -40 -19 -80 -42 -89 -51 -10 -8 -21 -12 -26 -8 -4 5 -5 3 -2 -4 4 -6 1 -18 -7 -26 -8 -8 -22 -32 -31 -53 -9 -21 -26 -47 -38 -57 -12 -10 -17 -16 -11 -13 7 4 10 -5 8 -23 -2 -19 2 -31 12 -35 19 -7 17 -77 -2 -117 -7 -15 -11 -29 -9 -31 3 -3 -4 -13 -16 -24 -23 -21 -93 -24 -112 -5 -18 18 -25 13 -48 -31 -18 -38 -21 -66 -26 -248 -11 -397 -11 -399 16 -455 14 -27 27 -52 30 -55 3 -3 12 -14 19 -25 7 -11 22 -34 33 -52 l21 -32 26 19 c29 22 93 34 124 24 10 -3 25 -19 34 -36 32 -61 -12 -159 -77 -173 l-30 -7 44 -51 c24 -29 46 -56 48 -62 14 -35 59 -86 101 -115 45 -32 186 -146 198 -161 9 -11 48 -29 63 -29 10 0 13 8 10 24 -6 31 22 91 52 110 41 27 105 36 141 21 35 -14 59 -48 48 -67 -5 -7 -3 -8 6 -3 13 8 12 -7 -6 -86 -5 -25 -3 -27 33 -32 67 -8 100 -17 168 -43 11 -4 22 -8 25 -9 3 0 22 -7 43 -14 67 -23 177 -6 285 45 29 14 36 28 14 29 -115 8 -186 120 -137 215 35 67 141 113 209 90 40 -13 80 -56 71 -77 -3 -9 0 -11 7 -7 16 10 2 -113 -17 -142 -21 -33 -19 -35 18 -20 17 8 61 25 96 37 72 25 118 57 241 169 47 42 95 82 106 88 46 24 95 148 134 335 16 78 32 152 36 164 5 18 1 25 -19 32 -67 26 -91 125 -41 175 15 14 31 27 35 27 10 2 11 2 50 13 l26 7 -14 52 c-7 29 -38 127 -69 220 -45 134 -65 179 -101 230 -26 34 -50 64 -55 65 -4 2 -8 9 -8 16 0 8 -11 11 -32 8 -43 -7 -93 23 -114 67 -16 33 -16 39 -1 81 20 54 18 56 -82 102 -35 16 -81 40 -102 54 -21 13 -40 24 -43 24 -2 0 -7 -19 -10 -42 -25 -157 -175 -211 -270 -98 -21 25 -26 42 -26 83 1 29 7 63 14 76 15 26 91 81 115 82 9 0 3 7 -14 14 -17 8 -65 14 -111 15 -65 0 -102 7 -187 35 -58 19 -110 35 -116 35 -5 0 -12 -9 -16 -20z m-194 -431 c11 -5 16 -15 13 -21 -4 -7 -3 -8 4 -4 20 12 35 -38 28 -88 -18 -115 -135 -154 -206 -68 -34 41 -38 77 -14 123 26 52 126 85 175 58z m348 -214 c109 -56 55 -305 -67 -305 -89 0 -151 127 -108 223 23 49 41 68 83 82 49 18 58 18 92 0z m722 -11 c38 -19 69 -70 69 -110 0 -17 -7 -51 -15 -75 -39 -108 -169 -144 -242 -66 -78 83 -55 199 49 247 49 22 102 23 139 4z m-1481 -319 c45 -23 70 -66 70 -120 0 -59 -22 -106 -68 -146 -32 -29 -40 -31 -92 -27 -64 5 -99 26 -126 77 -24 44 -22 101 6 145 25 42 48 56 110 72 62 16 67 16 100 -1z m1158 -118 c7 -6 11 -16 8 -24 -3 -8 -1 -11 4 -8 16 10 4 -93 -14 -121 -31 -46 -105 -58 -148 -24 -54 42 -58 120 -7 166 34 31 124 37 157 11z m-478 -393 c60 -51 73 -105 45 -185 -20 -55 -49 -87 -103 -111 -76 -34 -167 6 -204 89 -24 55 -20 99 16 153 51 78 183 107 246 54z m924 -26 c-5 -7 -3 -8 5 -4 7 5 21 0 33 -11 12 -10 18 -12 14 -5 -17 28 5 9 29 -25 52 -78 16 -207 -72 -252 -40 -21 -115 -14 -157 15 -106 72 -82 223 44 278 43 18 115 22 104 4z"/>
 </g>

</svg>